<svg width="14" height="14" viewBox="0 0 14 14" fill="none" xmlns="http://www.w3.org/2000/svg">
<path d="M9.81749 9.1233C10.2083 8.86663 10.7217 9.14663 10.7217 9.6133V10.3658C10.7217 11.1066 10.1442 11.9 9.44999 12.1333L7.58915 12.7516C7.26249 12.8625 6.73165 12.8625 6.41082 12.7516L4.54999 12.1333C3.84999 11.9 3.27832 11.1066 3.27832 10.3658V9.60747C3.27832 9.14663 3.79165 8.86663 4.17665 9.11747L5.37832 9.89913C5.83915 10.2083 6.42249 10.36 7.00582 10.36C7.58915 10.36 8.17249 10.2083 8.63332 9.89913L9.81749 9.1233Z" fill="black"/>
<path d="M11.6549 3.76841L8.16072 1.47591C7.53072 1.06174 6.49239 1.06174 5.86239 1.47591L2.35072 3.76841C1.22489 4.49757 1.22489 6.14841 2.35072 6.88341L3.28406 7.49007L5.86239 9.17007C6.49239 9.58424 7.53072 9.58424 8.16072 9.17007L10.7216 7.49007L11.5207 6.96507V8.75007C11.5207 8.98924 11.7191 9.18757 11.9582 9.18757C12.1974 9.18757 12.3957 8.98924 12.3957 8.75007V5.88007C12.6291 5.12757 12.3899 4.25257 11.6549 3.76841Z" fill="black"/>
</svg>
