<svg width="14" height="14" viewBox="0 0 14 14" fill="none" xmlns="http://www.w3.org/2000/svg">
<path d="M12.8332 12.3958H12.2498V5.82167C12.2498 5.46 12.0865 5.12167 11.8007 4.9L11.0832 4.34L11.0715 2.91084C11.0715 2.59 10.809 2.33334 10.4882 2.33334H8.499L7.71734 1.72667C7.29734 1.39417 6.70234 1.39417 6.28234 1.72667L2.199 4.9C1.91317 5.12167 1.74984 5.46 1.74984 5.81584L1.72067 12.3958H1.1665C0.927337 12.3958 0.729004 12.5942 0.729004 12.8333C0.729004 13.0725 0.927337 13.2708 1.1665 13.2708H12.8332C13.0723 13.2708 13.2707 13.0725 13.2707 12.8333C13.2707 12.5942 13.0723 12.3958 12.8332 12.3958ZM3.7915 7.4375V6.5625C3.7915 6.24167 4.054 5.97917 4.37484 5.97917H5.5415C5.86234 5.97917 6.12484 6.24167 6.12484 6.5625V7.4375C6.12484 7.75834 5.86234 8.02084 5.5415 8.02084H4.37484C4.054 8.02084 3.7915 7.75834 3.7915 7.4375ZM8.45817 12.3958H5.5415V10.7917C5.5415 10.3075 5.93234 9.91667 6.4165 9.91667H7.58317C8.06734 9.91667 8.45817 10.3075 8.45817 10.7917V12.3958ZM10.2082 7.4375C10.2082 7.75834 9.94567 8.02084 9.62484 8.02084H8.45817C8.13734 8.02084 7.87484 7.75834 7.87484 7.4375V6.5625C7.87484 6.24167 8.13734 5.97917 8.45817 5.97917H9.62484C9.94567 5.97917 10.2082 6.24167 10.2082 6.5625V7.4375Z" fill="black"/>
</svg>
