<svg width="14" height="14" viewBox="0 0 14 14" fill="none" xmlns="http://www.w3.org/2000/svg">
<path d="M12.6875 4.66659C12.6875 4.90576 12.4892 5.10409 12.25 5.10409H1.75C1.51083 5.10409 1.3125 4.90576 1.3125 4.66659C1.3125 4.42742 1.51083 4.22909 1.75 4.22909H2.345L2.56667 3.17326C2.77667 2.15242 3.21417 1.21326 4.9525 1.21326H9.0475C10.7858 1.21326 11.2233 2.15242 11.4333 3.17326L11.655 4.22909H12.25C12.4892 4.22909 12.6875 4.42742 12.6875 4.66659Z" fill="black"/>
<path d="M12.9381 7.96829C12.8506 7.00579 12.5939 5.97913 10.7214 5.97913H3.2781C1.4056 5.97913 1.15477 7.00579 1.06143 7.96829L0.734765 11.5208C0.693932 11.9641 0.839765 12.4075 1.1431 12.74C1.45227 13.0783 1.88977 13.2708 2.35643 13.2708H3.4531C4.3981 13.2708 4.57893 12.7283 4.6956 12.3725L4.81226 12.0225C4.94643 11.62 4.98143 11.5208 5.50643 11.5208H8.4931C9.0181 11.5208 9.0356 11.5791 9.18727 12.0225L9.30393 12.3725C9.4206 12.7283 9.60143 13.2708 10.5464 13.2708H11.6431C12.1039 13.2708 12.5473 13.0783 12.8564 12.74C13.1598 12.4075 13.3056 11.9641 13.2648 11.5208L12.9381 7.96829ZM5.24976 9.18746H3.49977C3.2606 9.18746 3.06227 8.98913 3.06227 8.74996C3.06227 8.51079 3.2606 8.31246 3.49977 8.31246H5.24976C5.48893 8.31246 5.68726 8.51079 5.68726 8.74996C5.68726 8.98913 5.48893 9.18746 5.24976 9.18746ZM10.4998 9.18746H8.74977C8.5106 9.18746 8.31226 8.98913 8.31226 8.74996C8.31226 8.51079 8.5106 8.31246 8.74977 8.31246H10.4998C10.7389 8.31246 10.9373 8.51079 10.9373 8.74996C10.9373 8.98913 10.7389 9.18746 10.4998 9.18746Z" fill="black"/>
</svg>
